<?xml version="1.0" encoding="utf-8"?><!-- Uploaded to: SVG Repo, www.svgrepo.com, Generator: SVG Repo Mixer Tools -->
<svg width="800px" height="800px" viewBox="0 0 400 400" fill="none"
  xmlns="http://www.w3.org/2000/svg">
  <path
    d="M103.157 228.16C97.1175 206.603 77.6664 197.936 88.6369 175.668C97.1175 158.454 216.768 173.72 223.31 167.358C227.108 163.666 253.471 121.867 258.205 119.564C262.157 117.642 275.672 120.91 294.804 125.866C299.384 127.052 319.504 129.075 323.313 132.708C328.048 137.225 321.653 161.99 319.828 163.949C317.256 166.71 284.523 158.038 279.579 161.059C271.931 165.731 249.143 243.322 246.413 245.711C236.031 254.794 137.578 245.883 121.106 243.322"
    stroke="#000000" stroke-opacity="0.9" stroke-width="16" stroke-linecap="round"
    stroke-linejoin="round"/>
  <path
    d="M119.324 245.155C111.82 253.018 97.8435 278.228 97.8435 282.955C97.8435 289.231 95.8876 318.675 108.246 329.255"
    stroke="#000000" stroke-opacity="0.9" stroke-width="16" stroke-linecap="round"
    stroke-linejoin="round"/>
  <path d="M135.233 251.974C130.443 265.952 127.324 281.559 121.596 294.024" stroke="#000000"
    stroke-opacity="0.9" stroke-width="16" stroke-linecap="round" stroke-linejoin="round"/>
  <path d="M121.596 297.433C127.911 310.597 128.475 326.336 142.052 330.391" stroke="#000000"
    stroke-opacity="0.9" stroke-width="16" stroke-linecap="round" stroke-linejoin="round"/>
  <path d="M224.173 253.11C221.814 278.703 222.559 305.39 222.559 330.391" stroke="#000000"
    stroke-opacity="0.9" stroke-width="16" stroke-linecap="round" stroke-linejoin="round"/>
  <path d="M247.051 249.701C249.824 271.765 240.895 315.752 248.882 329.255" stroke="#000000"
    stroke-opacity="0.9" stroke-width="16" stroke-linecap="round" stroke-linejoin="round"/>
  <path d="M195.467 75.8188C214.423 101.322 304.859 98.2276 314.977 98.2276" stroke="#000000"
    stroke-opacity="0.9" stroke-width="16" stroke-linecap="round" stroke-linejoin="round"/>
  <path
    d="M284.527 69.3765C283.651 74.4106 282.19 79.2537 281.039 84.2196C280.985 84.4563 276.047 97.6607 276.16 97.7654C276.8 98.3572 290.341 87.3921 291.497 86.8004C292.382 86.3407 307.167 79.6679 306.838 79.0579"
    stroke="#000000" stroke-opacity="0.9" stroke-width="16" stroke-linecap="round"
    stroke-linejoin="round"/>
  <path
    d="M253.428 75.1348C245.401 105.485 235.172 68.9216 234.936 69.0001C224.336 72.4118 228.894 94.9351 219.334 69.559"
    stroke="#000000" stroke-opacity="0.9" stroke-width="16" stroke-linecap="round"
    stroke-linejoin="round"/>
  <path d="M86.3648 176.966C83.4788 182.407 78.9329 187.315 75 191.74" stroke="#000000"
    stroke-opacity="0.9" stroke-width="16" stroke-linecap="round" stroke-linejoin="round"/>
</svg>